<svg width="100" height="100" viewBox="0 0 100 100" fill="none" xmlns="http://www.w3.org/2000/svg">
    <path d="M83.333 29.1667V20.8333C83.333 16.2375 79.5955 12.5 74.9997 12.5H20.833C13.9413 12.5 8.33301 18.1083 8.33301 25V75C8.33301 84.1708 15.808 87.5 20.833 87.5H83.333C87.9288 87.5 91.6664 83.7625 91.6664 79.1667V37.5C91.6664 32.9042 87.9288 29.1667 83.333 29.1667ZM74.9997 66.6667H66.6663V50H74.9997V66.6667ZM20.833 29.1667C19.7602 29.1187 18.7472 28.6587 18.005 27.8826C17.2628 27.1064 16.8486 26.0739 16.8486 25C16.8486 23.9261 17.2628 22.8936 18.005 22.1174C18.7472 21.3413 19.7602 20.8813 20.833 20.8333H74.9997V29.1667H20.833Z" fill="#0E80FC"/>
</svg>
