<svg width="100" height="100" viewBox="0 0 100 100" fill="none" xmlns="http://www.w3.org/2000/svg">
    <path d="M50 100C22.3844 100 0 77.6156 0 50C0 22.3844 22.3844 0 50 0C77.6156 0 100 22.3844 100 50C100 77.6156 77.6156 100 50 100ZM70.8781 23.025L36.5438 42.5531L20.1813 33.25L18.4938 36.6031L36.5438 46.9938L73.8312 25.7062L70.8781 23.025ZM63.3719 18.75L36.5438 34.0875L24.65 27.3L22.2062 30.2312L36.5438 38.3625L67.3344 20.7625L63.375 18.75H63.3719ZM76.4469 28.4719L36.5438 51.2687L17.1437 40.2062L16.2156 43.8937L36.5438 55.4594L78.6375 31.4062L76.4469 28.4719ZM82.5188 39.2844L80.6625 34.5906L36.5438 59.7344L15.625 47.9156V50.1781C15.625 54.7562 16.5406 59.2875 18.325 63.5063C20.0168 67.5921 22.512 71.2967 25.6625 74.4C28.8119 77.4561 32.5016 79.9007 36.5438 81.6094C40.8188 83.4531 45.2906 84.375 49.9594 84.375C54.5719 84.375 59.0406 83.4531 63.3719 81.6094C67.4617 79.9433 71.1867 77.4943 74.3375 74.4C77.4523 71.2671 79.9424 67.5701 81.675 63.5063L82.5188 61.2437C83.7562 57.6687 84.375 53.9781 84.375 50.1813C84.375 46.3781 83.7562 42.75 82.5188 39.2844Z" fill="#2C9E37"/>
</svg>
