<svg width="40" height="40" viewBox="0 0 40 40" fill="none" xmlns="http://www.w3.org/2000/svg">
    <path d="M8.55183 19.066L19.0657 8.55374L15.6189 5.10693L10.8002 9.92559C10.7428 9.98316 10.6745 10.0288 10.5994 10.06C10.5242 10.0912 10.4437 10.1072 10.3624 10.1072C10.281 10.1072 10.2005 10.0912 10.1253 10.06C10.0502 10.0288 9.98193 9.98316 9.92447 9.92559L9.0487 9.04983C8.80651 8.80764 8.80651 8.41546 9.0487 8.17406L13.8674 3.3554L11.2393 0.726548C10.2713 -0.241402 8.70261 -0.241402 7.73466 0.726548L0.726166 7.73501C-0.241007 8.70296 -0.241789 10.2717 0.726166 11.2396L8.55183 19.066ZM38.9006 9.94121C40.3662 8.47562 40.3654 6.09988 38.9006 4.63429L35.3655 1.0992C33.8999 -0.366399 31.5234 -0.366399 30.057 1.0992L26.4617 4.69366L35.3053 13.5372L38.9006 9.94121ZM24.6938 6.46238L1.491 29.6619L0.0253949 38.0555C-0.172258 39.1875 0.813664 40.1734 1.94646 39.9742L10.3409 38.5024L33.5374 15.3052L24.6938 6.46238ZM39.274 28.7612L36.6459 26.1331L31.8273 30.9517C31.5851 31.1939 31.1929 31.1939 30.9515 30.9517L30.0757 30.076C29.8343 29.8338 29.8343 29.4416 30.0757 29.2002L34.8944 24.3816L31.446 20.9332L20.9321 31.4455L28.7609 39.2735C29.7289 40.2414 31.2976 40.2414 32.2655 39.2735L39.274 32.2658C40.242 31.2978 40.242 29.7291 39.274 28.7612Z" fill="#0E80FC"/>
</svg>
