<svg width="40" height="39" viewBox="0 0 40 39" fill="none" xmlns="http://www.w3.org/2000/svg">
    <path fill-rule="evenodd" clip-rule="evenodd" d="M35.2043 37.5425C36.5241 38.8673 37.3393 37.9253 38.423 36.8441C39.5066 35.763 40.4461 34.9452 39.1264 33.623C39.1264 33.623 20.7291 15.2431 16.1857 10.7122L12.2637 14.6317L35.2043 37.5425Z" fill="#0E80FC"/>
    <path fill-rule="evenodd" clip-rule="evenodd" d="M4.9591 17.8231L6.48516 16.3219C6.48516 16.3219 5.81161 14.4752 6.79833 13.5904C7.78505 12.7056 9.4503 13.2524 9.4503 13.2524L14.8064 8.07521C14.8064 8.07521 14.4311 5.38347 14.9282 4.88638C15.4253 4.3893 20.9803 1.68265 21.5171 1.14082L20.3763 0C20.3763 0 12.6018 0.934527 11.7593 1.77461C11.2647 2.2717 7.56384 6.00981 4.9243 8.64935C4.9243 8.64935 5.58543 10.5358 4.71553 11.4057C3.84313 12.2781 1.87963 11.6543 1.87963 11.6543L0.331201 13.2002C-0.322471 13.8588 0.0627727 14.7834 0.865571 15.5862L2.57059 17.2912C3.37836 18.0965 4.30543 18.4768 4.9591 17.8231Z" fill="#0E80FC"/>
    <path fill-rule="evenodd" clip-rule="evenodd" d="M29.0307 14.0948C31.7075 15.3649 35.0654 14.9747 37.2874 12.7527C39.0023 11.0377 39.6833 8.67905 39.318 6.46204L35.5376 10.2374L32.3214 11.0353L28.6877 7.45124L29.5402 4.1282L33.2858 0.429862C31.0663 0.0669873 28.5585 0.591416 26.8435 2.30886C24.6191 4.53333 24.3158 7.97319 25.5859 10.6525L23.1154 13.1205L26.5652 16.5629L29.0307 14.0948Z" fill="#0E80FC"/>
    <path fill-rule="evenodd" clip-rule="evenodd" d="M18.3408 25.5379L14.6002 21.7998L11.3492 25.0533C11.1572 25.2418 11.0043 25.4665 10.8993 25.7144C10.708 25.6398 10.6011 25.6373 10.534 25.6647C9.9015 25.4445 9.23763 25.3278 8.56798 25.3192C5.13558 25.3192 2.35437 28.0656 2.35437 31.4558C2.35437 34.8459 5.13558 37.5923 8.56798 37.5923C12.0004 37.5923 14.7816 34.8459 14.7816 31.4558C14.7816 30.7524 14.635 30.0863 14.4187 29.4575C14.4063 29.3978 14.4038 29.3431 14.369 29.2561C14.6369 29.1506 14.8804 28.9916 15.0848 28.7889L18.3408 25.5379ZM8.56798 35.0298C6.5498 35.0298 4.91686 33.4317 4.91686 31.4558C4.91686 29.4798 6.54732 27.8817 8.56798 27.8817C10.5886 27.8817 12.2191 29.4798 12.2191 31.4558C12.2191 33.4317 10.5862 35.0298 8.56798 35.0298Z" fill="#0E80FC"/>
</svg>
