<svg width="34" height="40" viewBox="0 0 34 40" fill="none" xmlns="http://www.w3.org/2000/svg">
    <path d="M24.9574 10.8257V8.62385C24.9574 8.42202 24.7947 8.25688 24.5957 8.25688H7.23404C7.03511 8.25688 6.87234 8.42202 6.87234 8.62385V10.8257C6.87234 11.0275 7.03511 11.1927 7.23404 11.1927H24.5957C24.7947 11.1927 24.9574 11.0275 24.9574 10.8257ZM7.23404 14.8624C7.03511 14.8624 6.87234 15.0275 6.87234 15.2294V17.4312C6.87234 17.633 7.03511 17.7982 7.23404 17.7982H15.5532C15.7521 17.7982 15.9149 17.633 15.9149 17.4312V15.2294C15.9149 15.0275 15.7521 14.8624 15.5532 14.8624H7.23404ZM24.234 20.1835C18.8402 20.1835 14.4681 24.6193 14.4681 30.0917C14.4681 35.5642 18.8402 40 24.234 40C29.6279 40 34 35.5642 34 30.0917C34 24.6193 29.6279 20.1835 24.234 20.1835ZM29.0944 35.0229C27.7968 36.3395 26.0697 37.0642 24.234 37.0642C22.3984 37.0642 20.6713 36.3395 19.3737 35.0229C18.0761 33.7064 17.3617 31.9541 17.3617 30.0917C17.3617 28.2294 18.0761 26.4771 19.3737 25.1606C20.6713 23.844 22.3984 23.1193 24.234 23.1193C26.0697 23.1193 27.7968 23.844 29.0944 25.1606C30.392 26.4771 31.1064 28.2294 31.1064 30.0917C31.1064 31.9541 30.392 33.7064 29.0944 35.0229ZM28.258 26.6055H26.2551C26.1375 26.6055 26.029 26.6605 25.9612 26.7569L23.0902 30.7844L22.0457 29.3211C22.0123 29.2738 21.9681 29.2354 21.917 29.2091C21.8658 29.1827 21.8092 29.1692 21.7519 29.1697H19.758C19.4641 29.1697 19.2923 29.5092 19.4641 29.7523L22.8008 34.4358C22.9455 34.6376 23.2394 34.6376 23.384 34.4358L28.5473 27.1881C28.7237 26.945 28.5519 26.6055 28.258 26.6055ZM13.7447 35.5963H3.25532V3.30275H28.5745V19.0826C28.5745 19.2844 28.7372 19.4495 28.9362 19.4495H31.4681C31.667 19.4495 31.8298 19.2844 31.8298 19.0826V1.46789C31.8298 0.655963 31.1832 0 30.383 0H1.44681C0.646542 0 0 0.655963 0 1.46789V37.4312C0 38.2431 0.646542 38.8991 1.44681 38.8991H13.7447C13.9436 38.8991 14.1064 38.7339 14.1064 38.5321V35.9633C14.1064 35.7615 13.9436 35.5963 13.7447 35.5963Z" fill="#0E80FC"/>
</svg>
