<svg width="40" height="40" viewBox="0 0 40 40" fill="none" xmlns="http://www.w3.org/2000/svg">
    <path d="M0 5.23119C0 3.84379 0.526784 2.51322 1.46447 1.53218C2.40215 0.551142 3.67392 0 5 0L35 0C36.3261 0 37.5979 0.551142 38.5355 1.53218C39.4732 2.51322 40 3.84379 40 5.23119V26.1559C40 27.5433 39.4732 28.8739 38.5355 29.8549C37.5979 30.836 36.3261 31.3871 35 31.3871H11.035C10.372 31.3873 9.73623 31.6629 9.2675 32.1535L2.135 39.6158C1.96033 39.799 1.73763 39.9239 1.49509 39.9746C1.25255 40.0254 1.00108 39.9997 0.772498 39.9008C0.543917 39.802 0.348505 39.6344 0.210993 39.4193C0.0734815 39.2042 5.25372e-05 38.9513 0 38.6925L0 5.23119ZM12.5 15.6936C12.5 14.9999 12.2366 14.3346 11.7678 13.8441C11.2989 13.3535 10.663 13.078 10 13.078C9.33696 13.078 8.70107 13.3535 8.23223 13.8441C7.76339 14.3346 7.5 14.9999 7.5 15.6936C7.5 16.3873 7.76339 17.0525 8.23223 17.5431C8.70107 18.0336 9.33696 18.3092 10 18.3092C10.663 18.3092 11.2989 18.0336 11.7678 17.5431C12.2366 17.0525 12.5 16.3873 12.5 15.6936ZM22.5 15.6936C22.5 14.9999 22.2366 14.3346 21.7678 13.8441C21.2989 13.3535 20.663 13.078 20 13.078C19.337 13.078 18.7011 13.3535 18.2322 13.8441C17.7634 14.3346 17.5 14.9999 17.5 15.6936C17.5 16.3873 17.7634 17.0525 18.2322 17.5431C18.7011 18.0336 19.337 18.3092 20 18.3092C20.663 18.3092 21.2989 18.0336 21.7678 17.5431C22.2366 17.0525 22.5 16.3873 22.5 15.6936ZM30 18.3092C30.663 18.3092 31.2989 18.0336 31.7678 17.5431C32.2366 17.0525 32.5 16.3873 32.5 15.6936C32.5 14.9999 32.2366 14.3346 31.7678 13.8441C31.2989 13.3535 30.663 13.078 30 13.078C29.337 13.078 28.7011 13.3535 28.2322 13.8441C27.7634 14.3346 27.5 14.9999 27.5 15.6936C27.5 16.3873 27.7634 17.0525 28.2322 17.5431C28.7011 18.0336 29.337 18.3092 30 18.3092Z" fill="#0E80FC"/>
</svg>
