<svg width="34" height="40" viewBox="0 0 34 40" fill="none" xmlns="http://www.w3.org/2000/svg">
    <path d="M3.7783 0C1.68134 0 0 1.69524 0 3.80952V34.2857C0 35.2961 0.39807 36.265 1.10664 36.9795C1.81521 37.6939 2.77623 38.0952 3.7783 38.0952H11.3349V34.4571L15.2832 30.4762H3.7783V26.6667H19.0615L22.8398 22.8571H3.7783V19.0476H26.6181L30.2264 15.4095V11.4286L18.8915 0H3.7783ZM17.0024 2.85714L27.3927 13.3333H17.0024V2.85714ZM30.5098 20.9524C30.37 20.9493 30.231 20.9747 30.1011 21.0271C29.9713 21.0794 29.8533 21.1577 29.7541 21.2571L27.8272 23.2L31.7755 27.1619L33.7025 25.2381C34.0992 24.819 34.0992 24.1333 33.7025 23.7333L31.2466 21.2571C31.15 21.1595 31.0352 21.0822 30.9086 21.0299C30.7821 20.9776 30.6465 20.9512 30.5098 20.9524ZM26.7126 24.3238L15.1132 36.0381V40H19.0426L30.6609 28.2857L26.7126 24.3238Z" fill="#0E80FC"/>
</svg>
