<svg width="100" height="100" viewBox="0 0 100 100" fill="none" xmlns="http://www.w3.org/2000/svg">
    <path d="M62.5003 16.6667H25.0003V83.3334H75.0003V29.1667H62.5003V16.6667ZM25.0003 8.33334H66.667L83.3336 25V83.3334C83.3336 85.5435 82.4557 87.6631 80.8929 89.2259C79.3301 90.7887 77.2105 91.6667 75.0003 91.6667H25.0003C22.7902 91.6667 20.6706 90.7887 19.1078 89.2259C17.545 87.6631 16.667 85.5435 16.667 83.3334V16.6667C16.667 14.4565 17.545 12.3369 19.1078 10.7741C20.6706 9.21132 22.7902 8.33334 25.0003 8.33334ZM33.3337 45.8333H66.667V54.1667H33.3337V45.8333ZM33.3337 62.5H66.667V70.8333H33.3337V62.5Z" fill="#0E80FC"/>
</svg>
