<svg width="30" height="35" viewBox="0 0 30 35" fill="none" xmlns="http://www.w3.org/2000/svg">
    <path d="M21.6879 9.47001H27.4682C28.8535 9.47001 30 10.5927 30 12.0572V20.9414H16.242V10.5927C15.7643 10.4463 15.3344 10.251 15.0478 9.95816C15 9.95816 15 9.90934 14.9522 9.90934C14.9522 9.90934 14.9522 9.95816 14.9045 9.95816C14.5701 10.251 14.1879 10.4463 13.758 10.5927V20.9414H0V12.0572C0 10.5927 1.09873 9.47001 2.48408 9.47001H8.3121C7.64331 9.12831 7.02229 8.64017 6.49682 8.20084C4.20382 5.95537 3.77389 2.83124 5.58917 1.07392C6.3535 0.390516 7.35669 0 8.45541 0C10.0318 0 11.6561 0.634589 13.0414 1.95258C13.8057 2.6848 14.5223 3.7099 14.9522 4.68619C15.4299 3.7099 16.1465 2.6848 16.9108 1.95258C18.2484 0.634589 19.9682 0 21.4968 0C22.6433 0 23.6465 0.390516 24.3631 1.07392C26.1783 2.83124 25.7484 5.95537 23.4076 8.20084C22.9299 8.64017 22.3089 9.12831 21.6879 9.47001ZM13.1847 8.05439C13.3758 7.61506 12.8981 5.3696 11.3217 3.85635C10.5096 3.07531 9.41083 2.63598 8.45541 2.63598C8.16879 2.63598 7.69108 2.6848 7.35669 2.97768C7.26115 3.07531 6.97452 3.27057 6.97452 3.80753C6.97452 4.44212 7.35669 5.41841 8.26433 6.24826C9.41083 7.37099 11.2261 8.15202 12.5637 8.15202C12.9936 8.15202 13.1847 8.05439 13.1847 8.05439ZM16.8153 8.05439C16.8153 8.05439 17.0541 8.15202 17.4363 8.15202C18.7739 8.15202 20.5892 7.37099 21.7357 6.24826C22.6433 5.41841 22.9299 4.44212 22.9299 3.80753C22.9299 3.27057 22.6911 3.07531 22.6433 2.97768C22.3089 2.6848 21.7834 2.63598 21.4968 2.63598C20.5892 2.63598 19.4427 3.07531 18.6306 3.85635C17.1019 5.3696 16.5764 7.56625 16.8153 8.10321V8.05439ZM13.758 35H2.48408C1.09873 35 0 33.8773 0 32.4616V23.5286H13.758V35ZM27.4682 35H16.242V23.5286H30V32.4616C30 33.8773 28.8535 35 27.4682 35Z" fill="white"/>
</svg>
