<svg width="119" height="113" viewBox="0 0 119 113" fill="none" xmlns="http://www.w3.org/2000/svg">
    <path d="M108.503 99.2868C108.503 106.52 102.584 112.439 95.3508 112.439H23.0152C15.7816 112.439 9.86328 106.52 9.86328 99.2868V43.3911C9.86328 36.1576 15.7816 30.2392 23.0152 30.2392H95.3508C102.584 30.2392 108.503 36.1576 108.503 43.3911V99.2868Z" fill="#FDD888"/>
    <path d="M118.367 33.5272C118.367 40.7607 112.449 46.6791 105.215 46.6791H13.1519C5.91836 46.6791 0 40.7607 0 33.5272C0 26.2936 5.91836 20.3753 13.1519 20.3753H105.215C112.449 20.3753 118.367 26.2936 118.367 33.5272Z" fill="#FDD888"/>
    <path d="M9.86328 46.6791H108.503V53.2551H9.86328V46.6791Z" fill="#FCAB40"/>
    <path d="M62.4731 7.22339H55.8971C53.2811 7.22339 50.7721 8.26262 48.9223 10.1125C47.0724 11.9623 46.0332 14.4712 46.0332 17.0873V112.439H72.337V17.0873C72.337 14.4712 71.2978 11.9623 69.448 10.1125C67.5981 8.26262 65.0892 7.22339 62.4731 7.22339Z" fill="#DA2F47"/>
    <path d="M52.6091 20.3753C56.2259 20.3753 56.7618 18.6787 53.7961 16.604L31.6943 1.13075C31.0161 0.636984 30.2405 0.293448 29.4192 0.123049C28.5978 -0.0473514 27.7495 -0.0407004 26.9309 0.142558C26.1123 0.325816 25.3422 0.681472 24.6719 1.18581C24.0016 1.69016 23.4465 2.3316 23.0436 3.06737L16.415 14.6674C14.6198 17.8074 16.1125 20.3753 19.7293 20.3753H52.6091ZM65.761 20.3753C62.1443 20.3753 61.6083 18.6787 64.5741 16.604L86.6792 1.13075C87.3575 0.637509 88.1331 0.294414 88.9543 0.124307C89.7756 -0.0457996 90.6237 -0.0390159 91.4421 0.144207C92.2606 0.32743 93.0306 0.682889 93.7009 1.18692C94.3713 1.69095 94.9266 2.33199 95.3298 3.06737L101.958 14.6641C103.75 17.8074 102.258 20.3753 98.6408 20.3753H65.761Z" fill="#DA2F47"/>
</svg>
