<svg xmlns="http://www.w3.org/2000/svg" display="none">

    <symbol viewBox="0 0 24 24" id="instagram">
        <path d="M11.9968 5.84284C8.58954 5.84284 5.83973 8.5927 5.83973 12C5.83973 15.4073 8.58954 18.1572 11.9968 18.1572C15.404 18.1572 18.1538 15.4073 18.1538 12C18.1538 8.5927 15.404 5.84284 11.9968 5.84284ZM11.9968 16.0017C9.79333 16.0017 7.99515 14.2035 7.99515 12C7.99515 9.79651 9.79333 7.9983 11.9968 7.9983C14.2002 7.9983 15.9984 9.79651 15.9984 12C15.9984 14.2035 14.2002 16.0017 11.9968 16.0017ZM18.406 4.1557C17.6105 4.1557 16.968 4.79813 16.968 5.59367C16.968 6.38921 17.6105 7.03164 18.406 7.03164C19.2015 7.03164 19.8439 6.39221 19.8439 5.59367C19.8442 5.40477 19.8071 5.21767 19.735 5.0431C19.6628 4.86853 19.5569 4.70992 19.4233 4.57634C19.2897 4.44277 19.1311 4.33686 18.9565 4.26468C18.782 4.1925 18.5949 4.15546 18.406 4.1557ZM23.9987 12C23.9987 10.3429 24.0137 8.70077 23.9206 7.04665C23.8275 5.12536 23.3893 3.4202 21.9843 2.01525C20.5764 0.607302 18.8743 0.172008 16.953 0.0789456C15.2959 -0.0141173 13.6539 0.000892936 11.9998 0.000892936C10.3427 0.000892936 8.70061 -0.0141173 7.04652 0.0789456C5.12526 0.172008 3.42014 0.610305 2.01522 2.01525C0.607291 3.42321 0.172005 5.12536 0.0789442 7.04665C-0.014117 8.70377 0.000892919 10.3459 0.000892919 12C0.000892919 13.6541 -0.014117 15.2992 0.0789442 16.9533C0.172005 18.8746 0.610293 20.5798 2.01522 21.9847C3.42314 23.3927 5.12526 23.828 7.04652 23.9211C8.70361 24.0141 10.3457 23.9991 11.9998 23.9991C13.6569 23.9991 15.2989 24.0141 16.953 23.9211C18.8743 23.828 20.5794 23.3897 21.9843 21.9847C23.3923 20.5768 23.8275 18.8746 23.9206 16.9533C24.0167 15.2992 23.9987 13.6571 23.9987 12ZM21.3569 19.0788C21.1378 19.6252 20.8736 20.0334 20.4503 20.4537C20.0271 20.877 19.6218 21.1412 19.0754 21.3603C17.4964 21.9877 13.7469 21.8467 11.9968 21.8467C10.2466 21.8467 6.49416 21.9877 4.91512 21.3633C4.36876 21.1442 3.96049 20.88 3.54022 20.4567C3.11694 20.0334 2.85277 19.6282 2.63362 19.0818C2.00921 17.4997 2.15031 13.7502 2.15031 12C2.15031 10.2498 2.00921 6.49728 2.63362 4.91822C2.85277 4.37185 3.11694 3.96357 3.54022 3.54329C3.9635 3.123 4.36876 2.85582 4.91512 2.63667C6.49416 2.01225 10.2466 2.15335 11.9968 2.15335C13.7469 2.15335 17.4994 2.01225 19.0784 2.63667C19.6248 2.85582 20.0331 3.12 20.4533 3.54329C20.8766 3.96657 21.1408 4.37185 21.3599 4.91822C21.9843 6.49728 21.8432 10.2498 21.8432 12C21.8432 13.7502 21.9843 17.4997 21.3569 19.0788Z"/>
    </symbol>

    <symbol id="vk" viewBox="0 0 24 15">
        <path d="M23.4497 1.0158C23.6174 0.42976 23.4497 0 22.6568 0H20.0303C19.362 0 19.0566 0.371787 18.8889 0.780122C18.8889 0.780122 17.5535 4.20686 15.6611 6.42875C15.0503 7.07528 14.7712 7.27945 14.4382 7.27945C14.2718 7.27945 14.0298 7.07528 14.0298 6.48925V1.0158C14.0298 0.312553 13.837 0 13.2801 0H9.15281C8.73601 0 8.48449 0.325156 8.48449 0.635188C8.48449 1.30062 9.43067 1.45438 9.52769 3.32969V7.39792C9.52769 8.28894 9.37558 8.45152 9.04022 8.45152C8.15033 8.45152 5.9849 5.01218 4.69977 1.07503C4.44945 0.310032 4.19673 0.0012608 3.52602 0.0012608H0.900669C0.149712 0.0012608 0 0.373047 0 0.781382C0 1.51487 0.889889 5.14451 4.14523 9.94497C6.31546 13.223 9.37079 15 12.1542 15C13.8226 15 14.0286 14.6055 14.0286 13.925V11.4472C14.0286 10.6583 14.1879 10.4995 14.7161 10.4995C15.1042 10.4995 15.7725 10.7062 17.3307 12.2853C19.1105 14.1581 19.4051 14.9987 20.4052 14.9987H23.0305C23.7803 14.9987 24.1552 14.6043 23.9396 13.8254C23.7036 13.0503 22.8533 11.9224 21.725 10.5877C21.1118 9.8265 20.1956 9.00731 19.9165 8.59771C19.5273 8.06965 19.6398 7.8365 19.9165 7.36767C19.9177 7.36893 23.1168 2.62771 23.4497 1.0158Z"/>
    </symbol>

    <symbol id="youtube" viewBox="0 0 24 18">
        <path d="M23.499 2.77631C23.3596 2.24145 23.0938 1.75429 22.7275 1.36199C22.3612 0.969695 21.9067 0.685555 21.4081 0.537086C19.5363 2.56762e-05 12.0114 2.58061e-05 12.0114 2.58061e-05C12.0114 2.58061e-05 4.50088 -0.0128574 2.60954 0.537086C2.11169 0.686207 1.65809 0.970645 1.29261 1.36291C0.927116 1.75517 0.662092 2.24199 0.523149 2.77631C0.16769 4.83294 -0.00737956 6.9208 0.000238261 9.01249C-0.00323013 11.0941 0.171812 13.1717 0.523149 15.2189C0.662542 15.7535 0.927644 16.2407 1.29301 16.6336C1.65837 17.0266 2.11172 17.3122 2.60954 17.4629C4.48137 18 12.0114 18 12.0114 18C12.0114 18 19.5175 18 21.4081 17.4629C21.9067 17.3128 22.361 17.0276 22.7271 16.6346C23.0933 16.2415 23.3591 15.754 23.499 15.2189C23.8433 13.1729 24.0114 11.0923 23.9994 9.01249C24.0114 6.91901 23.8471 4.83518 23.499 2.77631ZM9.6077 12.8669V5.14115L15.8714 9.01249L9.6077 12.8669Z"/>
    </symbol>

    <symbol id="phone" viewBox="0 0 20 20">
        <path d="M13.3342 14.2139L15.0564 12.491C15.2883 12.2618 15.5818 12.1049 15.9012 12.0394C16.2205 11.9739 16.552 12.0025 16.8555 12.1218L18.9544 12.9602C19.261 13.0847 19.5239 13.2972 19.71 13.5709C19.8961 13.8447 19.997 14.1674 20 14.4985V18.3442C19.9982 18.5694 19.9509 18.7919 19.8609 18.9983C19.7709 19.2047 19.6401 19.3908 19.4763 19.5453C19.3125 19.6998 19.1192 19.8195 18.9079 19.8973C18.6967 19.9751 18.4719 20.0093 18.2471 19.9979C3.5392 19.0826 0.57149 6.62239 0.010239 1.85368C-0.0158147 1.6195 0.00798984 1.38246 0.0800864 1.15814C0.152183 0.933831 0.270938 0.727331 0.428538 0.55223C0.586138 0.377128 0.779012 0.237394 0.994471 0.142219C1.20993 0.0470438 1.44309 -0.00141458 1.67862 3.14343e-05H5.3921C5.72347 0.0010127 6.04698 0.101149 6.321 0.287561C6.59503 0.473973 6.80704 0.738135 6.92977 1.04607L7.7678 3.14584C7.89101 3.44817 7.92245 3.78011 7.85818 4.10021C7.79391 4.4203 7.63679 4.71436 7.40645 4.94565L5.68426 6.66854C5.68426 6.66854 6.67606 13.3832 13.3342 14.2139Z"/>
    </symbol>

    <symbol id="mail" viewBox="0 0 18 15">
        <path d="M0 4.557V12C0 12.7956 0.31607 13.5587 0.87868 14.1213C1.44129 14.6839 2.20435 15 3 15H15C15.7956 15 16.5587 14.6839 17.1213 14.1213C17.6839 13.5587 18 12.7956 18 12V3C18 2.20435 17.6839 1.44129 17.1213 0.87868C16.5587 0.31607 15.7956 0 15 0H3C2.20435 0 1.44129 0.31607 0.87868 0.87868C0.31607 1.44129 0 2.20435 0 3V4.557ZM3 1.5H15C15.3978 1.5 15.7794 1.65804 16.0607 1.93934C16.342 2.22064 16.5 2.60218 16.5 3V4.11L9 8.148L1.5 4.11V3C1.5 2.60218 1.65804 2.22064 1.93934 1.93934C2.22064 1.65804 2.60218 1.5 3 1.5ZM1.5 5.814L8.6445 9.66C8.75376 9.71882 8.87591 9.74961 9 9.74961C9.12409 9.74961 9.24624 9.71882 9.3555 9.66L16.5 5.814V12C16.5 12.3978 16.342 12.7794 16.0607 13.0607C15.7794 13.342 15.3978 13.5 15 13.5H3C2.60218 13.5 2.22064 13.342 1.93934 13.0607C1.65804 12.7794 1.5 12.3978 1.5 12V5.814Z"/>
    </symbol>

    <symbol id="star" viewBox="0 0 18 18">
        <path fill-rule="evenodd" clip-rule="evenodd"
              d="M8.43023 15.5414L4.10088 17.9262C3.80163 18.091 3.4315 17.9705 3.27417 17.6569C3.21152 17.5321 3.18991 17.3891 3.21266 17.25L4.0395 12.1989C4.10762 11.7827 3.97594 11.3581 3.68739 11.0634L0.184865 7.48615C-0.0572337 7.23888 -0.0621875 6.8328 0.173801 6.57913C0.267773 6.47812 0.390904 6.41238 0.524132 6.3921L5.3645 5.65514C5.76327 5.59443 6.108 5.332 6.28634 4.95339L8.45101 0.357687C8.60064 0.0400264 8.96771 -0.0903974 9.27088 0.0663776C9.39161 0.128806 9.48932 0.231193 9.54891 0.357687L11.7136 4.95339C11.8919 5.332 12.2366 5.59443 12.6354 5.65514L17.4758 6.3921C17.8104 6.44304 18.0422 6.76852 17.9936 7.11908C17.9742 7.25867 17.9115 7.38769 17.8151 7.48615L14.3125 11.0634C14.024 11.3581 13.8923 11.7827 13.9604 12.1989L14.7873 17.25C14.8444 17.5992 14.6206 17.9308 14.2874 17.9906C14.1547 18.0145 14.0182 17.9918 13.899 17.9262L9.56969 15.5414C9.21301 15.3449 8.78691 15.3449 8.43023 15.5414Z"/>
    </symbol>

    <symbol id="play" viewBox="0 0 21 26">
        <path d="M21 13L-1.14193e-06 25.1244L-8.1987e-08 0.875644L21 13Z"/>
    </symbol>

    <symbol id="play-youtube" viewBox="0 0 162 96">
        <path d="M158.14 15.5307C157.223 12.6738 155.426 10.0685 152.929 7.97558C150.431 5.88261 147.321 4.37537 143.909 3.60469C131.348 0.777344 81 0.777344 81 0.777344C81 0.777344 30.6516 0.777343 18.0914 3.58965C14.6777 4.35783 11.5656 5.86424 9.0676 7.95759C6.56961 10.0509 4.77367 12.6575 3.86016 15.5156C0.499999 26.043 0.5 48 0.5 48C0.5 48 0.499999 69.957 3.86016 80.4693C5.71094 86.2744 11.1734 90.8463 18.0914 92.3953C30.6516 95.2227 81 95.2227 81 95.2227C81 95.2227 131.348 95.2227 143.909 92.3953C150.845 90.8463 156.289 86.2744 158.14 80.4693C161.5 69.957 161.5 48 161.5 48C161.5 48 161.5 26.043 158.14 15.5307ZM65.0078 68.1523V27.8477L106.695 47.8496L65.0078 68.1523Z"/>
    </symbol>

    <symbol id="arrow-bottom" viewBox="0 0 32 17">
        <path d="M30 2L16 15L2 2" stroke-width="4" stroke-linecap="round" stroke-linejoin="round"/>
    </symbol>

    <symbol id="master" viewBox="0 0 61 50">
        <path d="M22.2898 33.3333C14.8506 33.3333 0 37.0556 0 44.4444V50H44.5797V44.4444C44.5797 37.0556 29.7291 33.3333 22.2898 33.3333ZM58.7894 10.6667C58.8173 10.3611 58.8451 10.0556 58.8451 9.72223C58.8451 9.38889 58.8173 9.08334 58.7616 8.77778L60.8234 7.16667C61.0184 7.02778 61.0463 6.75 60.9348 6.55556L58.9845 3.19445C58.873 2.97223 58.5944 2.91667 58.3993 2.97223L56.0032 3.94445C55.5017 3.55556 54.9444 3.25 54.3593 3L53.9971 0.416672C53.9761 0.299462 53.9143 0.1934 53.8225 0.117177C53.7308 0.0409533 53.615 -0.000540889 53.4956 5.32455e-06H49.5949C49.3441 5.32455e-06 49.1491 0.166672 49.1212 0.416672L48.759 3C48.1739 3.25 47.6166 3.58334 47.1151 3.94445L44.6911 2.97223C44.4682 2.88889 44.2174 2.97223 44.106 3.19445L42.1556 6.55556C42.0442 6.77778 42.072 7.02778 42.2671 7.16667L44.3289 8.77778C44.2181 9.40257 44.2181 10.0419 44.3289 10.6667L42.2671 12.2778C42.072 12.4167 42.0442 12.6944 42.1556 12.8889L44.106 16.25C44.2174 16.4722 44.4961 16.5278 44.6911 16.4722L47.1151 15.5C47.6166 15.8889 48.1739 16.1944 48.759 16.4444L49.1212 19.0278C49.1491 19.2778 49.3441 19.4444 49.5949 19.4444H53.4956C53.7463 19.4444 53.9414 19.2778 53.9692 19.0278L54.3315 16.4444C54.9166 16.1944 55.4738 15.8611 55.9753 15.5L58.3993 16.4722C58.6222 16.5556 58.873 16.4722 58.9845 16.25L60.9348 12.8889C61.0463 12.6667 61.0184 12.4167 60.8234 12.2778L58.7894 10.6667ZM51.5452 13.1944C50.6215 13.1944 49.7357 12.8286 49.0825 12.1775C48.4294 11.5263 48.0624 10.6431 48.0624 9.72223C48.0624 8.80134 48.4294 7.91816 49.0825 7.26699C49.7357 6.61583 50.6215 6.25 51.5452 6.25C52.4689 6.25 53.3548 6.61583 54.0079 7.26699C54.6611 7.91816 55.028 8.80134 55.028 9.72223C55.028 10.6431 54.6611 11.5263 54.0079 12.1775C53.3548 12.8286 52.4689 13.1944 51.5452 13.1944ZM52.7154 24.1111L51.3223 21.6944C51.2387 21.5278 51.0437 21.4722 50.9044 21.5278L49.1769 22.2222C48.8147 21.9444 48.4246 21.7222 48.0067 21.5556L47.756 19.7222C47.7274 19.6416 47.6746 19.5717 47.6048 19.522C47.5351 19.4723 47.4516 19.4453 47.3659 19.4444H44.5797C44.4125 19.4444 44.2732 19.5556 44.2453 19.75L43.9945 21.5833C43.5766 21.75 43.1865 22 42.8243 22.25L41.0969 21.5556C40.9297 21.5 40.7625 21.5556 40.6789 21.7222L39.2858 24.1389C39.2022 24.3056 39.2301 24.4722 39.3694 24.5833L40.8461 25.7222C40.8182 25.9444 40.7904 26.1667 40.7904 26.3889C40.7904 26.6111 40.8182 26.8611 40.8461 27.0556L39.3694 28.1944C39.2301 28.3056 39.2022 28.5 39.2858 28.6389L40.6789 31.0556C40.7625 31.2222 40.9576 31.2778 41.0969 31.2222L42.8243 30.5278C43.1865 30.8056 43.5766 31.0278 43.9945 31.1944L44.2453 33.0278C44.2732 33.2222 44.4125 33.3333 44.5797 33.3333H47.3659C47.5331 33.3333 47.7002 33.2222 47.7002 33.0278L47.951 31.1944C48.3689 31.0278 48.759 30.7778 49.1212 30.5278L50.8487 31.2222C51.0158 31.2778 51.183 31.2222 51.2666 31.0556L52.6597 28.6389C52.7433 28.4722 52.7154 28.3056 52.5761 28.1944L51.1273 27.0556C51.1552 26.8333 51.183 26.6111 51.183 26.3889C51.183 26.1667 51.1552 25.9167 51.1273 25.7222L52.604 24.5833C52.7433 24.4722 52.7712 24.2778 52.7154 24.1111ZM45.9728 28.6944C44.6911 28.6944 43.6602 27.6389 43.6602 26.3889C43.6602 25.1111 44.719 24.0833 45.9728 24.0833C47.2266 24.0833 48.2853 25.1389 48.2853 26.3889C48.2853 27.6667 47.2544 28.6944 45.9728 28.6944ZM10.4205 16.6667H34.187C34.9393 16.6667 35.5523 16.0556 35.5523 15.3056V15.25C35.5523 14.889 35.4084 14.5428 35.1524 14.2876C34.8964 14.0323 34.5491 13.8889 34.187 13.8889H33.4347C33.4347 9.77778 31.1779 6.25001 27.8623 4.30556V6.94445C27.8623 7.72223 27.2493 8.33334 26.4692 8.33334C25.689 8.33334 25.0761 7.72223 25.0761 6.94445V3.16667C24.1845 2.94445 23.265 2.77778 22.2898 2.77778C21.3146 2.77778 20.3952 2.94445 19.5036 3.16667V6.94445C19.5036 7.72223 18.8906 8.33334 18.1105 8.33334C17.3303 8.33334 16.7174 7.72223 16.7174 6.94445V4.30556C13.4018 6.25001 11.1449 9.77778 11.1449 13.8889H10.4205C10.2412 13.8889 10.0637 13.9241 9.89803 13.9925C9.73239 14.0609 9.58189 14.1612 9.45511 14.2876C9.32834 14.4139 9.22778 14.564 9.15917 14.7291C9.09056 14.8943 9.05524 15.0713 9.05524 15.25V15.3333C9.05524 16.0556 9.66821 16.6667 10.4205 16.6667ZM22.2898 27.7778C27.4722 27.7778 31.7909 24.2222 33.0447 19.4444H11.535C12.7888 24.2222 17.1074 27.7778 22.2898 27.7778Z"/>
    </symbol>

    <symbol id="arrow-right" viewBox="0 0 42 30">
        <path d="M41.4142 16.4142C42.1953 15.6332 42.1953 14.3668 41.4142 13.5858L28.6863 0.857864C27.9052 0.0768156 26.6389 0.0768156 25.8579 0.857864C25.0768 1.63891 25.0768 2.90524 25.8579 3.68629L37.1716 15L25.8579 26.3137C25.0768 27.0948 25.0768 28.3611 25.8579 29.1421C26.6389 29.9232 27.9052 29.9232 28.6863 29.1421L41.4142 16.4142ZM0 17L40 17V13L0 13L0 17Z"/>
    </symbol>

    <symbol id="arrow-left" viewBox="0 0 42 30">
        <path d="M0.585785 13.5858C-0.195263 14.3668 -0.195263 15.6332 0.585785 16.4142L13.3137 29.1421C14.0948 29.9232 15.3611 29.9232 16.1421 29.1421C16.9232 28.3611 16.9232 27.0948 16.1421 26.3137L4.82843 15L16.1421 3.68629C16.9232 2.90524 16.9232 1.63891 16.1421 0.857864C15.3611 0.0768156 14.0948 0.0768156 13.3137 0.857864L0.585785 13.5858ZM42 13L2 13V17L42 17V13Z"/>
    </symbol>

    <symbol id="facebook" viewBox="0 0 155.139 155.139">
        <g>
            <path d="M89.584,155.139V84.378h23.742l3.562-27.585H89.584V39.184
		c0-7.984,2.208-13.425,13.67-13.425l14.595-0.006V1.08C115.325,0.752,106.661,0,96.577,0C75.52,0,61.104,12.853,61.104,36.452
		v20.341H37.29v27.585h23.814v70.761H89.584z"/>
        </g>
    </symbol>

    <symbol id="prev" viewBox="0 0 14 32">
        <path d="M12 30L2 16L12 2" stroke-width="4" stroke-linecap="round" stroke-linejoin="round"/>
    </symbol>

    <symbol id="next" viewBox="0 0 14 32">
        <path d="M2 2L12 16L2 30" stroke-width="4" stroke-linecap="round" stroke-linejoin="round"/>
    </symbol>

    <symbol id="star" viewBox="0 0 18 18">
        <path fill-rule="evenodd" clip-rule="evenodd"
              d="M8.43023 15.5414L4.10088 17.9262C3.80163 18.091 3.4315 17.9705 3.27417 17.6569C3.21152 17.5321 3.18991 17.3891 3.21266 17.25L4.0395 12.1989C4.10762 11.7827 3.97594 11.3581 3.68739 11.0634L0.184865 7.48615C-0.0572337 7.23888 -0.0621875 6.8328 0.173801 6.57913C0.267773 6.47812 0.390904 6.41238 0.524132 6.3921L5.3645 5.65514C5.76327 5.59443 6.108 5.332 6.28634 4.95339L8.45101 0.357687C8.60064 0.0400264 8.96771 -0.0903974 9.27088 0.0663776C9.39161 0.128806 9.48932 0.231193 9.54891 0.357687L11.7136 4.95339C11.8919 5.332 12.2366 5.59443 12.6354 5.65514L17.4758 6.3921C17.8104 6.44304 18.0422 6.76852 17.9936 7.11908C17.9742 7.25867 17.9115 7.38769 17.8151 7.48615L14.3125 11.0634C14.024 11.3581 13.8923 11.7827 13.9604 12.1989L14.7873 17.25C14.8444 17.5992 14.6206 17.9308 14.2874 17.9906C14.1547 18.0145 14.0182 17.9918 13.899 17.9262L9.56969 15.5414C9.21301 15.3449 8.78691 15.3449 8.43023 15.5414Z"/>
    </symbol>


    <symbol id="play" viewBox="0 0 21 26">
        <path d="M21 13L-1.14193e-06 25.1244L-8.1987e-08 0.875644L21 13Z"/>
    </symbol>

</svg>